<svg xmlns="http://www.w3.org/2000/svg" viewBox="0 0 100 100">
  <defs>
    <linearGradient id="grad1" x1="0%" y1="0%" x2="100%" y2="100%">
      <stop offset="0%" style="stop-color:#409eff;stop-opacity:1" />
      <stop offset="100%" style="stop-color:#67c23a;stop-opacity:1" />
    </linearGradient>
    <filter id="shadow" x="-20%" y="-20%" width="140%" height="140%">
      <feDropShadow dx="2" dy="2" stdDeviation="3" flood-color="#000000" flood-opacity="0.3"/>
    </filter>
  </defs>
  
  <!-- 背景圆形 -->
  <circle cx="50" cy="50" r="45" fill="url(#grad1)" filter="url(#shadow)"/>
  
  <!-- 书本图标 -->
  <g transform="translate(25, 25)">
    <!-- 书本封面 -->
    <rect x="10" y="15" width="30" height="40" rx="2" fill="#ffffff" opacity="0.9"/>
    <rect x="12" y="17" width="26" height="36" rx="1" fill="#f8f9fa"/>
    
    <!-- 书本页面 -->
    <rect x="8" y="13" width="30" height="40" rx="2" fill="#ffffff" stroke="#e1e8ed" stroke-width="0.5"/>
    <rect x="6" y="11" width="30" height="40" rx="2" fill="#ffffff" stroke="#e1e8ed" stroke-width="0.5"/>
    
    <!-- 文字线条 -->
    <line x1="10" y1="20" x2="28" y2="20" stroke="#409eff" stroke-width="1.5" stroke-linecap="round"/>
    <line x1="10" y1="25" x2="32" y2="25" stroke="#67c23a" stroke-width="1" stroke-linecap="round"/>
    <line x1="10" y1="29" x2="30" y2="29" stroke="#909399" stroke-width="1" stroke-linecap="round"/>
    <line x1="10" y1="33" x2="26" y2="33" stroke="#909399" stroke-width="1" stroke-linecap="round"/>
    
    <!-- 书签 -->
    <rect x="32" y="11" width="3" height="15" fill="#f56c6c"/>
    <polygon points="32,26 35,26 33.5,23" fill="#f56c6c"/>
  </g>
  
  <!-- 装饰性元素 -->
  <circle cx="20" cy="20" r="2" fill="#ffffff" opacity="0.6"/>
  <circle cx="80" cy="30" r="1.5" fill="#ffffff" opacity="0.4"/>
  <circle cx="75" cy="75" r="2.5" fill="#ffffff" opacity="0.5"/>
</svg>